<?xml version="1.0" encoding="UTF-8" standalone="no"?>
<!-- Created with Inkscape (http://www.inkscape.org/) -->

<svg
   xmlns:dc="http://purl.org/dc/elements/1.1/"
   xmlns:cc="http://creativecommons.org/ns#"
   xmlns:rdf="http://www.w3.org/1999/02/22-rdf-syntax-ns#"
   xmlns:svg="http://www.w3.org/2000/svg"
   xmlns="http://www.w3.org/2000/svg"
   xmlns:sodipodi="http://sodipodi.sourceforge.net/DTD/sodipodi-0.dtd"
   xmlns:inkscape="http://www.inkscape.org/namespaces/inkscape"
   width="183.28125"
   height="183.83125"
   id="svg2"
   version="1.1"
   inkscape:version="0.48.2 r9819"
   sodipodi:docname="AuroraLogo.svg"
   inkscape:export-filename="D:\xampp\htdocs\proyectos\proyectos\aurora\resources\aurora_256.png"
   inkscape:export-xdpi="125.82192"
   inkscape:export-ydpi="125.82192">
  <defs
     id="defs4">
    <inkscape:perspective
       sodipodi:type="inkscape:persp3d"
       inkscape:vp_x="0 : 526.18109 : 1"
       inkscape:vp_y="0 : 1000 : 0"
       inkscape:vp_z="744.09448 : 526.18109 : 1"
       inkscape:persp3d-origin="372.04724 : 350.78739 : 1"
       id="perspective10" />
    <inkscape:perspective
       id="perspective3600"
       inkscape:persp3d-origin="0.5 : 0.33333333 : 1"
       inkscape:vp_z="1 : 0.5 : 1"
       inkscape:vp_y="0 : 1000 : 0"
       inkscape:vp_x="0 : 0.5 : 1"
       sodipodi:type="inkscape:persp3d" />
    <inkscape:perspective
       id="perspective3622"
       inkscape:persp3d-origin="0.5 : 0.33333333 : 1"
       inkscape:vp_z="1 : 0.5 : 1"
       inkscape:vp_y="0 : 1000 : 0"
       inkscape:vp_x="0 : 0.5 : 1"
       sodipodi:type="inkscape:persp3d" />
    <inkscape:perspective
       id="perspective3644"
       inkscape:persp3d-origin="0.5 : 0.33333333 : 1"
       inkscape:vp_z="1 : 0.5 : 1"
       inkscape:vp_y="0 : 1000 : 0"
       inkscape:vp_x="0 : 0.5 : 1"
       sodipodi:type="inkscape:persp3d" />
    <inkscape:perspective
       id="perspective3605"
       inkscape:persp3d-origin="0.5 : 0.33333333 : 1"
       inkscape:vp_z="1 : 0.5 : 1"
       inkscape:vp_y="0 : 1000 : 0"
       inkscape:vp_x="0 : 0.5 : 1"
       sodipodi:type="inkscape:persp3d" />
  </defs>
  <sodipodi:namedview
     id="base"
     pagecolor="#ffffff"
     bordercolor="#666666"
     borderopacity="1.0"
     inkscape:pageopacity="0.0"
     inkscape:pageshadow="2"
     inkscape:zoom="0.7"
     inkscape:cx="123.64543"
     inkscape:cy="-33.286763"
     inkscape:document-units="px"
     inkscape:current-layer="layer1"
     showgrid="false"
     inkscape:window-width="1280"
     inkscape:window-height="744"
     inkscape:window-x="-4"
     inkscape:window-y="-4"
     inkscape:window-maximized="1"
     fit-margin-top="0"
     fit-margin-left="0"
     fit-margin-right="0"
     fit-margin-bottom="0" />
  <metadata
     id="metadata7">
    <rdf:RDF>
      <cc:Work
         rdf:about="">
        <dc:format>image/svg+xml</dc:format>
        <dc:type
           rdf:resource="http://purl.org/dc/dcmitype/StillImage" />
        <dc:title />
      </cc:Work>
    </rdf:RDF>
  </metadata>
  <g
     inkscape:label="Capa 1"
     inkscape:groupmode="layer"
     id="layer1"
     transform="translate(-268.64645,-78.401592)">
    <path
       sodipodi:type="arc"
       style="fill:#212b40;fill-opacity:1;stroke:none"
       id="path3662"
       sodipodi:cx="262.14285"
       sodipodi:cy="263.07648"
       sodipodi:rx="177.14285"
       sodipodi:ry="177.14285"
       d="m 439.28571,263.07648 c 0,97.83329 -79.30956,177.14285 -177.14286,177.14285 C 164.30956,440.21933 85,360.90977 85,263.07648 85,165.24318 164.30956,85.933624 262.14285,85.933624 c 97.8333,0 177.14286,79.309556 177.14286,177.142856 z"
       transform="matrix(0.41688217,0,0,0.41688217,249.57279,60.518768)" />
    <path
       inkscape:connector-curvature="0"
       style="fill:#bcd35f;fill-opacity:1;stroke:none"
       d="m 359.79729,78.40166 c -0.36886,16.150769 1.17912,31.47652 4.07292,45.88476 9.33083,-12.99385 20.73733,-25.656828 34.64557,-37.446777 -11.71636,-5.413502 -24.75821,-8.437983 -38.51226,-8.437983 -0.069,0 -0.13729,-1.52e-4 -0.20623,0 z m -8.78169,0.429632 c -43.19818,4.192697 -77.63935,38.283118 -82.36915,81.320848 20.29404,-10.86457 47.46197,-21.777 79.46484,-25.86388 -1.431,-17.2803 -0.77313,-35.822833 2.90431,-55.456968 z m 55.25075,12.046893 c -8.24621,9.561135 -15.26479,19.479435 -21.24103,29.541535 12.29363,-5.89503 25.79146,-10.85668 40.5745,-14.47002 -5.73079,-5.83779 -12.22286,-10.922115 -19.33347,-15.071515 z m 25.93262,22.547125 c -13.78043,5.65863 -32.95269,13.31901 -44.26197,20.96115 17.2302,1.71141 42.03577,4.92943 60.8286,11.98307 -3.27548,-12.16404 -8.97598,-23.32955 -16.56663,-32.94422 z m -25.50299,34.45653 c -6.91071,0.65322 -30.8914,-0.0975 -35.4189,3.90106 13.02806,38.44491 34.47902,68.30153 50.35293,86.71704 18.59884,-16.8199 30.29769,-41.13998 30.29769,-68.19128 0,-6.13355 -0.60625,-12.12797 -1.7529,-17.92427 -15.00663,-3.16594 -29.54167,-4.54208 -43.47882,-4.50255 z m -82.05981,16.25729 c -21.79816,8.58975 -40.06395,19.26234 -53.79,28.63072 2.57652,10.26485 6.8914,19.83972 12.59683,28.4073 7.85537,-15.05936 21.10913,-36.41079 41.19317,-57.03802 z m 34.47371,21.96282 c -6.88967,30.18097 -7.26209,57.50381 -6.23826,75.85592 2.35084,0.18023 4.73484,0.27497 7.1319,0.27497 12.99894,0 25.36141,-2.71161 36.57032,-7.57872 -11.96831,-15.39713 -27.15652,-38.7941 -37.46396,-68.55217 z m -20.81385,-7.23992 c -11.57834,17.33855 -27.98691,54.43427 -32.73555,65.49809 5.38532,3.9662 11.21701,7.35764 17.40871,10.08778 0.15654,-14.34701 7.94118,-54.17059 15.32684,-75.58587 z"
       id="path2816"
       sodipodi:nodetypes="cccsccccccccccccccccsccccccccscccccc" />
    <text
       xml:space="preserve"
       style="font-size:40px;font-style:normal;font-weight:normal;fill:#000000;fill-opacity:1;stroke:none;font-family:Edo SZ;-inkscape-font-specification:Edo SZ"
       x="196.97975"
       y="457.38232"
       id="text2817"><tspan
         sodipodi:role="line"
         id="tspan2819"
         x="196.97975"
         y="457.38232" /></text>
  </g>
</svg>
